<?xml version="1.0" encoding="utf-8"?>
<!-- Generator: Adobe Illustrator 24.0.0, SVG Export Plug-In . SVG Version: 6.00 Build 0)  -->
<svg version="1.1" id="Layer_1" xmlns="http://www.w3.org/2000/svg" xmlns:xlink="http://www.w3.org/1999/xlink" x="0px" y="0px"
	 viewBox="0 0 256 256" style="enable-background:new 0 0 256 256;" xml:space="preserve">
<style type="text/css">
	.st0{fill:#FFB69F;}
	.st1{fill:#72C2E9;}
	.st2{fill:#C2E5FF;}
	.st3{fill:#FC5D3D;}
	.st4{fill:#AFAFAF;}
	.st5{fill:#FFCBC3;}
	.st6{fill:#F0C020;}
	.st7{fill:#F8E5B0;}
	.st8{fill:#EFEFEF;}
	.st9{fill:#EEC21E;}
	.st10{fill:#FFFFFF;}
	.st11{fill:#F1BF21;}
	.st12{fill:#E8A61E;}
	.st13{fill:#7D7B79;}
	.st14{fill:#B34F33;}
	.st15{fill:#F8E5B2;}
	.st16{fill:#C5E5FE;}
	.st17{fill:#4C4944;}
	.st18{fill:#4BA5C8;}
	.st19{fill:#AFAEAF;}
	.st20{fill:#CF941C;}
	.st21{fill:#7C7B7A;}
	.st22{fill:#FAE0E1;}
	.st23{fill:#13BF6D;}
	.st24{fill:#76FFBB;}
	.st25{fill:#F2E1D7;}
	.st26{fill:#878787;}
	.st27{fill:#F9E5AF;}
	.st28{fill:#E8A61F;}
	.st29{fill:none;stroke:#000000;stroke-width:5;stroke-linecap:round;stroke-linejoin:round;stroke-miterlimit:10;}
	.st30{fill:#EFEFF0;}
	.st31{fill:#E8A61B;}
	.st32{fill:#EFEFEE;}
	.st33{fill:#4C4945;}
	.st34{fill:#EA8F7D;}
	.st35{fill:#D6C0B3;}
	.st36{fill:#EEC120;}
</style>
<g>
</g>
<g>
	<path class="st6" d="M148.8,97.72l-3.32,9.12l-3.71,10.21l-6.85,18.83c-3.27,8.99-12.74,8.84-31.03,6.28
		c5.7-15.94,22.29-62.3,24.82-69.39C141.24,79.86,152.38,87.93,148.8,97.72z"/>
	<g>
		<g>
			<path class="st6" d="M250,153.32v31.46h-21.74c-3.31-5.23-9.16-8.7-15.84-8.7c-6.67,0-12.51,3.47-15.86,8.7h-22.04v-67.21
				c0-2.71,2.19-4.89,4.89-4.89h38.74c2.37,0,4.4,1.7,4.81,4.04l1.46,8.34l3.77,21.23l17.52,2.18
				C248.16,148.77,250,150.86,250,153.32z"/>
		</g>
		<g>
			<path class="st7" d="M193.403,178.481h-10.089c-1.381,0-2.5-1.119-2.5-2.5s1.119-2.5,2.5-2.5h10.089c1.381,0,2.5,1.119,2.5,2.5
				S194.784,178.481,193.403,178.481z"/>
		</g>
		<g>
			<path class="st7" d="M241.202,178.481h-9.998c-1.381,0-2.5-1.119-2.5-2.5s1.119-2.5,2.5-2.5h7.498V156.77
				c0-1.381,1.119-2.5,2.5-2.5s2.5,1.119,2.5,2.5v19.212C243.702,177.362,242.583,178.481,241.202,178.481z"/>
		</g>
		<g>
			<polygon class="st1" points="228.186,146.289 190.14,146.289 190.14,125.057 224.425,125.057 			"/>
		</g>
		<g>
			<path class="st17" d="M231.2,194.86c0,10.37-8.4,18.79-18.78,18.79c-10.36,0-18.79-8.42-18.79-18.79c0-3.72,1.08-7.17,2.93-10.08
				c3.35-5.23,9.19-8.7,15.86-8.7c6.68,0,12.53,3.47,15.84,8.7C230.13,187.69,231.2,191.14,231.2,194.86z"/>
		</g>
		<g>
			<path class="st4" d="M220.614,194.865c0,4.526-3.668,8.201-8.194,8.201s-8.201-3.675-8.201-8.201
				c0-4.517,3.668-8.194,8.201-8.194C216.974,186.671,220.614,190.37,220.614,194.865z"/>
		</g>
		<g>
			<path class="st4" d="M141.4,184.781h-15c-3.33-5.23-9.17-8.7-15.84-8.7c-6.68,0-12.52,3.47-15.86,8.7H75.54
				c-3.31-5.23-9.16-8.7-15.84-8.7c-6.67,0-12.51,3.47-15.86,8.7h-15l8.1-17.226h96.37L141.4,184.781z"/>
		</g>
		<g>
			<path class="st4" d="M20.07,184.781H9.38c-2.69,0-4.88-2.18-4.88-4.88v-12.35h20.88l-6.68,13.43
				C18.038,182.415,18.631,184.103,20.07,184.781z"/>
		</g>
		<g>
			<path class="st4" d="M141.4,184.781h-15c-3.33-5.23-9.17-8.7-15.84-8.7c-6.68,0-12.52,3.47-15.86,8.7H75.54
				c-3.31-5.23-9.16-8.7-15.84-8.7c-6.67,0-12.51,3.47-15.86,8.7h-15l8.1-17.23h96.37L141.4,184.781z"/>
		</g>
		<g>
			<path class="st4" d="M174.52,167.551v17.23h-24.33c1.43-0.67,2.04-2.37,1.37-3.8l-6.68-13.43H174.52z"/>
		</g>
		<g>
			<path class="st17" d="M163.93,115.281c0,4.15-2.27,7.76-5.62,9.68c-3.359,1.937-7.582,2.012-11.07,0
				c-2.86-1.63-4.94-4.52-5.47-7.91l3.71-10.21c1.96-1.69,4.49-2.71,7.28-2.71C158.94,104.13,163.93,109.13,163.93,115.281z"/>
		</g>
		<g>
			<path class="st4" d="M158.31,124.96v42.59h-11.07v-42.59C150.728,126.972,154.951,126.898,158.31,124.96z"/>
		</g>
		<g>
			<polygon class="st6" points="70.03,62.44 51.96,112.081 39.95,100.781 53.57,63.371 			"/>
		</g>
		<g>
			<path class="st6" d="M100.84,62.551l-24.88,69.55c-4.75-2.94-9.72-6.67-14.94-11.45l21.56-59.2
				C88.52,61.09,94.63,61.42,100.84,62.551z"/>
		</g>
		<g>
			<path class="st17" d="M150.19,184.781l-4.61,2.17c-1.43,0.67-3.13,0.06-3.8-1.36l-0.38-0.81l-8.09-17.23H36.94l-8.1,17.23
				l-0.38,0.8c-0.68,1.43-2.38,2.03-3.81,1.36l-4.58-2.16c-1.438-0.677-2.032-2.364-1.37-3.8l6.68-13.43l3.4-7.78
				c0.8-1.82,2.59-3,4.58-3h103.53c1.99,0,3.78,1.18,4.58,2.99l3.41,7.79l6.68,13.43C152.23,182.41,151.62,184.11,150.19,184.781z"
				/>
		</g>
		<g>
			<polygon class="st4" points="84.58,55.94 82.58,61.45 61.02,120.65 61.02,120.66 59.58,124.641 59.58,156.771 48.13,156.771 
				48.13,122.621 51.96,112.081 70.03,62.44 73.82,52.021 			"/>
		</g>
		<g>
			<path class="st4" d="M130.39,68.07l-1.68,4.7c-2.53,7.09-19.12,53.45-24.82,69.39c-0.76,2.12-1.33,3.7-1.64,4.58
				c-0.43,1.19-1.74,1.81-2.93,1.39l-23.63-8.46c-1.19-0.42-1.81-1.74-1.39-2.93l1.66-4.64l24.88-69.55l1.6-4.48
				c0.43-1.19,1.74-1.81,2.93-1.39L129,65.14C130.19,65.56,130.81,66.88,130.39,68.07z"/>
		</g>
		<g>
			<path class="st8" d="M96.041,141.544l-13.644-4.88c-1.3-0.465-1.977-1.896-1.512-3.196c0.465-1.3,1.896-1.977,3.196-1.512
				l11.291,4.039l19.688-55.038c0.465-1.301,1.899-1.976,3.196-1.512c1.3,0.465,1.977,1.896,1.512,3.196l-20.53,57.392
				C98.769,141.337,97.335,142.008,96.041,141.544z M119.938,74.737c-1.3-0.465-1.977-1.896-1.512-3.196l0.674-1.883
				c0.465-1.3,1.897-1.976,3.196-1.512c1.3,0.465,1.977,1.896,1.512,3.196l-0.674,1.883
				C122.668,74.527,121.234,75.201,119.938,74.737z"/>
		</g>
		<g>
			<path class="st17" d="M129.34,194.86c0,10.37-8.41,18.79-18.78,18.79c-10.38,0-18.8-8.42-18.8-18.79c0-3.72,1.08-7.17,2.94-10.08
				c3.34-5.23,9.18-8.7,15.86-8.7c6.67,0,12.51,3.47,15.84,8.7C128.25,187.69,129.34,191.141,129.34,194.86z"/>
		</g>
		<g>
			<path class="st4" d="M118.748,194.865c0,4.526-3.668,8.201-8.194,8.201c-4.526,0-8.201-3.675-8.201-8.201
				c0-4.517,3.668-8.194,8.201-8.194C115.108,186.671,118.748,190.37,118.748,194.865z"/>
		</g>
		<g>
			<path class="st17" d="M78.48,194.86c0,10.37-8.4,18.79-18.78,18.79c-10.36,0-18.79-8.42-18.79-18.79c0-3.72,1.08-7.17,2.93-10.08
				c3.35-5.23,9.19-8.7,15.86-8.7c6.68,0,12.53,3.47,15.84,8.7C77.41,187.69,78.48,191.141,78.48,194.86z"/>
		</g>
		<g>
			<path class="st4" d="M67.894,194.865c0,4.526-3.668,8.201-8.194,8.201s-8.201-3.675-8.201-8.201c0-4.517,3.668-8.194,8.201-8.194
				C64.255,186.671,67.894,190.37,67.894,194.865z"/>
		</g>
		<g>
			<path class="st17" d="M150.19,184.781l-4.61,2.17c-1.43,0.67-3.13,0.06-3.8-1.36l-0.38-0.81l-8.09-17.23H36.94l-8.1,17.23
				l-0.38,0.8c-0.68,1.43-2.38,2.03-3.81,1.36l-4.58-2.16c-1.438-0.677-2.032-2.364-1.37-3.8l6.68-13.43l3.4-7.78
				c0.8-1.82,2.59-3,4.58-3h103.53c1.99,0,3.78,1.18,4.58,2.99l3.41,7.79l6.68,13.43C152.23,182.41,151.62,184.11,150.19,184.781z"
				/>
		</g>
	</g>
	<g>
		<path d="M196.666,158.572h-6.525c-1.381,0-2.5,1.119-2.5,2.5s1.119,2.5,2.5,2.5h6.525c1.381,0,2.5-1.119,2.5-2.5
			S198.046,158.572,196.666,158.572z"/>
		<path d="M212.419,184.17c-5.9,0-10.701,4.797-10.701,10.694c0,5.9,4.8,10.701,10.701,10.701c5.897,0,10.694-4.8,10.694-10.701
			C223.114,188.967,218.316,184.17,212.419,184.17z M212.419,200.564c-3.144,0-5.701-2.557-5.701-5.701
			c0-3.14,2.557-5.694,5.701-5.694c3.14,0,5.694,2.554,5.694,5.694C218.114,198.007,215.559,200.564,212.419,200.564z"/>
		<circle cx="208.19" cy="146.29" r="2.5"/>
		<path d="M110.554,184.17c-5.901,0-10.701,4.797-10.701,10.694c0,5.9,4.8,10.701,10.701,10.701c5.896,0,10.694-4.8,10.694-10.701
			C121.248,188.967,116.45,184.17,110.554,184.17z M110.554,200.564c-3.144,0-5.701-2.557-5.701-5.701
			c0-3.14,2.558-5.694,5.701-5.694c3.14,0,5.694,2.554,5.694,5.694C116.248,198.007,113.693,200.564,110.554,200.564z"/>
		<path d="M59.7,205.564c5.896,0,10.694-4.8,10.694-10.701c0-5.896-4.797-10.694-10.694-10.694c-5.901,0-10.701,4.797-10.701,10.694
			C48.999,200.764,53.799,205.564,59.7,205.564z M59.7,189.17c3.14,0,5.694,2.554,5.694,5.694c0,3.144-2.554,5.701-5.694,5.701
			c-3.144,0-5.701-2.557-5.701-5.701C53.999,191.724,56.557,189.17,59.7,189.17z"/>
		<path d="M41.88,201.339c-1.199,0.63-1.698,2.135-1.05,3.37c0.675,1.302,2.268,1.658,3.37,1.06c1.22-0.64,1.7-2.16,1.06-3.38
			C44.599,201.157,43.1,200.695,41.88,201.339z"/>
		<path d="M246.019,145.989l-15.69-1.954c-1.818-10.265-0.795-4.482-4.906-27.747c-0.62-3.54-3.679-6.108-7.272-6.108h-38.74
			c-4.075,0-7.39,3.315-7.39,7.39v47.48h-11.21v-38.743c3.494-2.554,5.615-6.653,5.615-11.031c0-7.527-6.129-13.651-13.663-13.651
			c-0.959,0-1.906,0.113-2.832,0.31l1.22-3.353c4.065-11.122-7.176-19.836-19.39-26.935l0.979-2.738l0.01-0.02
			c0.888-2.571-0.501-5.248-2.92-6.11l-23.62-8.45c-0.51-0.19-1.05-0.28-1.61-0.28c-2.01,0-3.82,1.27-4.51,3.17l-0.901,2.518
			c-4.293-0.663-8.645-0.963-12.996-0.912l0.738-2.033c0.471-1.297-0.198-2.73-1.494-3.202l-10.76-3.92
			c-1.304-0.471-2.734,0.2-3.206,1.495l-3.229,8.875l-14.815,0.835c-0.998,0.056-1.867,0.702-2.208,1.641L37.6,99.923
			c-0.342,0.938-0.092,1.991,0.636,2.676l10.816,10.176l-3.271,8.991c-0.1,0.274-0.15,0.563-0.15,0.854v31.65H33.36
			c-2.973,0-5.668,1.764-6.87,4.499l-2.746,6.281H4.5c-1.381,0-2.5,1.119-2.5,2.5v12.35c0,4.069,3.311,7.38,7.38,7.38h10.13
			l4.08,1.924c2.441,1.143,5.309,0.267,6.749-1.924h9.47c-0.79,2.075-1.259,4.265-1.368,6.49c-0.081,1.359,0.959,2.546,2.37,2.63
			c1.39,0.08,2.55-1,2.62-2.37c0.43-8.601,7.546-15.45,16.27-15.45c9.154,0,16.28,7.429,16.28,16.28
			c-0.02,8.97-7.32,16.27-16.28,16.29c-3.05,0-6.03-0.85-8.62-2.47c-1.13-0.71-2.73-0.34-3.44,0.8
			c-0.751,1.203-0.35,2.728,0.79,3.44c3.38,2.11,7.27,3.23,11.26,3.23h0.01c11.73,0,21.28-9.55,21.28-21.29
			c0-2.616-0.479-5.181-1.395-7.58h11.077c-0.919,2.405-1.401,4.968-1.401,7.58c0,11.739,9.555,21.29,21.3,21.29
			c11.734,0,21.28-9.551,21.28-21.29c0-2.605-0.484-5.168-1.406-7.58h9.438c1.435,2.215,4.322,3.08,6.773,1.932l4.104-1.932
			c4.725,0,37.706,0,41.781,0c-0.916,2.405-1.397,4.968-1.397,7.582c0,11.739,9.55,21.289,21.289,21.289
			c11.733,0,21.279-9.55,21.279-21.289c0-2.617-0.482-5.181-1.398-7.582H250c1.381,0,2.5-1.119,2.5-2.5v-31.46
			C252.5,149.593,249.711,146.441,246.019,145.989z M172.02,182.28h-17.706c0.013-0.805-0.147-1.628-0.515-2.414l-4.883-9.816
			c31.568,0-8.461,0,23.104,0V182.28z M62.08,125.078l0.042-0.117c3.581,3.08,7.202,5.821,10.815,8.176l-0.988,2.762
			c-0.887,2.381,0.355,5.22,2.91,6.13l23.62,8.45c2.435,0.889,5.21-0.385,6.12-2.89l0.958-2.677
			c5.45,0.736,10.318,1.267,14.533,1.267c8.642,0,14.554-2.225,17.176-9.446l4.754-13.064c0.776,0.995,1.679,1.894,2.719,2.649
			v34.679l-0.984-2.248c-1.203-2.722-3.897-4.48-6.866-4.48H62.08V125.078z M149.74,165.05v-36.453
			c2.039,0.466,4.132,0.443,6.07-0.002v36.455H149.74z M152.763,106.625c4.776,0,8.663,3.881,8.663,8.651
			c0,6.475-6.89,10.815-12.948,7.514c-1.882-1.026-3.552-3.095-4.118-5.539c1.711-4.706,0.993-2.733,3.241-8.91
			C149.083,107.231,150.894,106.625,152.763,106.625z M146.454,96.869c-0.239,0.657-13.799,37.915-13.886,38.155
			c-2.214,6.101-7.8,7.32-25.286,5.068l22.765-63.652C143.767,84.56,148.694,90.74,146.454,96.869z M97.469,64.542L90.18,84.909
			c-0.46,1.3,0.22,2.73,1.52,3.2c1.27,0.45,2.74-0.25,3.19-1.51c0.01-0.01,0.01-0.01,0.01-0.02l9.83-27.48l23.24,8.33
			c-1.959,5.478-26.853,75.074-28,78.28l-23.25-8.32c0.935-2.611,1.711-4.779,11.44-31.96c0.46-1.3-0.22-2.73-1.51-3.2
			c-1.28-0.45-2.75,0.25-3.2,1.51l-8.777,24.546c-3.581-2.406-7.173-5.208-10.725-8.368L84.359,63.87
			C88.743,63.706,93.134,63.932,97.469,64.542z M42.861,100.085l12.491-34.311l11.028-0.622l-15.468,42.508L42.861,100.085z
			 M50.63,123.06l24.685-67.835l6.063,2.209c-27.868,76.535-21.19,58.179-24.149,66.355c-0.099,0.273-0.149,0.561-0.149,0.851v29.63
			h-6.45V123.06z M7,179.899v-9.85h14.345l-4.914,9.881c-0.332,0.717-0.508,1.499-0.495,2.349H9.38
			C8.067,182.28,7,181.212,7,179.899z M59.7,173.579c-6.834,0-13.16,3.226-17.18,8.701h-9.745l5.752-12.23h93.195l5.742,12.23
			h-9.747c-4.003-5.472-10.318-8.7-17.157-8.7c-6.842,0-13.163,3.228-17.175,8.7H76.859C72.914,176.852,66.532,173.579,59.7,173.579
			z M110.56,211.149c-8.988,0-16.3-7.308-16.3-16.29c0-8.899,7.208-16.28,16.3-16.28c9.142,0,16.28,7.448,16.28,16.28
			C126.84,203.842,119.537,211.149,110.56,211.149z M144.52,184.686c-0.179,0.086-0.396,0.012-0.477-0.159l-8.47-18.039
			c-0.412-0.877-1.294-1.438-2.263-1.438H36.94c-0.969,0-1.85,0.56-2.263,1.437c-8.995,19.134-7.934,16.879-8.475,18.02
			c-0.088,0.183-0.304,0.256-0.486,0.172l-4.58-2.16c-0.183-0.086-0.241-0.281-0.198-0.426c8.39-16.868,5.289-10.24,10.13-21.317
			c0.402-0.915,1.301-1.506,2.291-1.506c11.655,0,91.731,0,103.53,0c0.99,0,1.89,0.589,2.29,1.493
			c5.008,11.439,1.899,4.758,10.116,21.278c0.086,0.183,0.012,0.392-0.167,0.476c-0.001,0-0.002,0.001-0.004,0.002L144.52,184.686z
			 M212.422,211.15c-8.982,0-16.289-7.307-16.289-16.289c0-8.966,7.246-16.279,16.289-16.279c9.176,0,16.279,7.451,16.279,16.279
			C228.701,203.843,221.398,211.15,212.422,211.15z M247.5,182.28h-17.919c-3.988-5.471-10.302-8.697-17.159-8.697
			c-6.838,0-13.158,3.226-17.174,8.697H177.02v-64.71c0-1.318,1.072-2.39,2.39-2.39h38.74c1.16,0,2.147,0.829,2.348,1.971
			l0.956,5.409H190.14c-1.414,0-2.5,1.146-2.5,2.5v21.23c0,1.367,1.112,2.5,2.5,2.5h8.05c1.37,0,2.5-1.12,2.5-2.5
			c0-1.38-1.13-2.5-2.5-2.5h-5.55v-16.23h29.69l2.87,16.23h-7.01c-1.38,0-2.5,1.12-2.5,2.5c0,1.38,1.12,2.5,2.5,2.5h9.856
			l17.361,2.162c1.194,0.146,2.094,1.165,2.094,2.369V182.28z"/>
		<path d="M88.33,97.52c1.294,0.477,2.735-0.223,3.19-1.51c0.482-1.321-0.227-2.741-1.51-3.19c-1.27-0.46-2.74,0.24-3.19,1.51
			C86.35,95.629,87.03,97.06,88.33,97.52z"/>
	</g>
</g>
</svg>
